HIERARCHY
ROOT Hips
{
 OFFSET 0.000000 0.000000 0.000000
 CHANNELS 6 Xposition Yposition Zposition Yrotation Xrotation Zrotation
 JOINT Chest
 {
  OFFSET 0.000000 9.812683 -0.003552
  CHANNELS 3 Yrotation Xrotation Zrotation
  JOINT Chest2
  {
   OFFSET 0.000000 9.777810 0.007248
   CHANNELS 3 Yrotation Xrotation Zrotation
   JOINT Chest3
   {
    OFFSET 0.000000 9.736392 0.000000
    CHANNELS 3 Yrotation Xrotation Zrotation
    JOINT Chest4
    {
     OFFSET 0.000000 9.726454 0.000000
     CHANNELS 3 Yrotation Xrotation Zrotation
     JOINT Neck
     {
      OFFSET 0.000000 14.679095 0.000000
      CHANNELS 3 Yrotation Xrotation Zrotation
      JOINT Head
      {
       OFFSET 0.000000 9.104124 0.015333
       CHANNELS 3 Yrotation Xrotation Zrotation
       End Site
       {
        OFFSET 0.000000 17.313862 0.008094
       }
      }
     }
     JOINT RightCollar
     {
      OFFSET -2.991841 9.728033 0.000000
      CHANNELS 3 Yrotation Xrotation Zrotation
      JOINT RightShoulder
      {
       OFFSET -14.105608 0.000000 0.000000
       CHANNELS 3 Yrotation Xrotation Zrotation
       JOINT RightElbow
       {
        OFFSET -30.920614 0.000000 0.000000
        CHANNELS 3 Yrotation Xrotation Zrotation
        JOINT RightWrist
        {
         OFFSET -25.011638 0.000000 0.000000
         CHANNELS 3 Yrotation Xrotation Zrotation
         End Site
         {
          OFFSET -18.498852 0.000000 0.000000
         }
        }
       }
      }
     }
     JOINT LeftCollar
     {
      OFFSET 2.991841 9.728033 0.000000
      CHANNELS 3 Yrotation Xrotation Zrotation
      JOINT LeftShoulder
      {
       OFFSET 14.105608 0.000000 0.000000
       CHANNELS 3 Yrotation Xrotation Zrotation
       JOINT LeftElbow
       {
        OFFSET 30.920614 0.000000 0.000000
        CHANNELS 3 Yrotation Xrotation Zrotation
        JOINT LeftWrist
        {
         OFFSET 25.011638 0.000000 0.000000
         CHANNELS 3 Yrotation Xrotation Zrotation
         End Site
         {
          OFFSET 18.498852 0.000000 0.000000
         }
        }
       }
      }
     }
    }
   }
  }
 }
 JOINT RightHip
 {
  OFFSET -8.005612 0.017580 0.001776
  CHANNELS 3 Yrotation Xrotation Zrotation
  JOINT RightKnee
  {
   OFFSET 0.000000 -41.413990 -0.001697
   CHANNELS 3 Yrotation Xrotation Zrotation
   JOINT RightAnkle
   {
    OFFSET 0.000000 -40.303361 -0.002870
    CHANNELS 3 Yrotation Xrotation Zrotation
    JOINT RightToe
    {
     OFFSET 0.000000 -7.855341 17.873357
     CHANNELS 3 Yrotation Xrotation Zrotation
     End Site
     {
      OFFSET 0.000000 -1.536332 6.874071
     }
    }
   }
  }
 }
 JOINT LeftHip
 {
  OFFSET 8.005612 0.017580 0.001776
  CHANNELS 3 Yrotation Xrotation Zrotation
  JOINT LeftKnee
  {
   OFFSET 0.000000 -41.413990 -0.001697
   CHANNELS 3 Yrotation Xrotation Zrotation
   JOINT LeftAnkle
   {
    OFFSET 0.000000 -40.303361 -0.002870
    CHANNELS 3 Yrotation Xrotation Zrotation
    JOINT LeftToe
    {
     OFFSET 0.000000 -7.855341 17.873357
     CHANNELS 3 Yrotation Xrotation Zrotation
     End Site
     {
      OFFSET 0.000000 -1.536332 6.874071
     }
    }
   }
  }
 }
}
MOTION
Frames: 8
Frame Time: 0.008333
-68.005541 91.584746 -45.237704 169.234464 -14.755436 -4.397469 3.614054 5.695356 2.328702 1.973352 3.324462 0.500504 2.472271 4.152729 0.643807 1.973351 3.324480 0.500507 16.049478 27.735843 62.301687 19.396731 16.977740 103.359563 -4.949962 -4.880942 -5.568071 2.740570 3.445741 88.130835 16.167545 2.119470 2.593235 3.105176 -4.761933 -1.356834 -2.545052 -4.515078 4.792805 1.034820 16.216116 -71.019032 -26.527169 11.003620 -24.932446 38.520149 18.486221 -23.702339 2.594223 3.429526 -7.892845 -5.027673 19.281954 -4.220268 -3.790843 -6.087356 11.529679 -0.706401 0.618690 -3.129528 -40.034083 15.132678 1.567823 -24.638683 23.986994 -10.117748 -17.378076 -8.872856 -3.413155 -2.684226 -16.572647 14.297851
-67.223816 91.689859 -45.026368 169.827355 -14.627821 -4.699368 3.662790 5.707543 2.521959 2.020067 3.312757 0.541630 2.531039 4.137796 0.695591 2.020070 3.312770 0.541633 15.990546 28.396138 62.399415 19.803803 18.021724 103.882037 -4.840281 -5.009170 -5.518863 2.956499 3.439571 87.992481 15.887185 2.111698 2.544940 3.018947 -4.709552 -1.265331 -2.252526 -4.545980 4.878798 1.531131 17.033399 -70.622823 -26.756731 10.575542 -26.152729 38.698136 18.576306 -24.355889 2.218524 3.624888 -7.142352 -5.052920 18.924253 -4.125690 -3.938197 -6.128015 11.289654 -0.713264 0.361654 -2.837579 -39.615254 15.291991 2.463633 -24.795417 24.111924 -10.097554 -17.378142 -8.428196 -4.061570 -2.928276 -17.525002 14.671255
-66.450183 91.788388 -44.807536 170.448032 -14.443979 -5.018920 3.674147 5.712807 2.718160 2.057587 3.285963 0.581733 2.578264 4.104014 0.745920 2.057596 3.285972 0.581735 15.910446 29.005085 62.443588 20.129391 18.991004 104.248970 -4.743586 -5.123014 -5.463779 3.204441 3.401656 87.841038 15.549760 2.079567 2.486870 2.956534 -4.659791 -1.168154 -1.937713 -4.548677 4.971639 1.962797 17.893770 -70.314402 -26.926095 10.005098 -27.310517 38.826676 18.617592 -25.006334 1.808483 3.689359 -6.434904 -5.059771 18.654300 -3.980394 -3.999001 -6.030165 11.002547 -0.748698 0.015838 -2.580591 -39.182351 15.373294 3.403434 -24.919143 24.248118 -10.063172 -17.362748 -7.934570 -4.739844 -3.172184 -18.495524 15.034381
-65.713637 91.869719 -44.580237 171.032409 -14.173830 -5.170272 3.698704 5.678436 2.759246 2.086507 3.241188 0.618689 2.614657 4.047784 0.792126 2.086521 3.241195 0.618691 15.834771 29.557032 62.432230 20.394346 19.863450 104.428377 -4.675713 -5.199578 -5.419355 3.471008 3.322101 87.688674 15.161464 2.031668 2.414587 2.899342 -4.610541 -1.063370 -1.611065 -4.504086 5.059024 2.327500 18.793279 -70.090125 -27.027006 9.306036 -28.399505 38.926969 18.630694 -25.650344 1.381799 3.628244 -5.940163 -5.097206 18.408292 -3.802494 -4.038284 -5.883342 10.661758 -0.740709 -0.285760 -2.335692 -38.680045 15.231723 4.282997 -25.017758 24.396997 -10.015507 -17.378934 -7.412827 -5.441688 -3.388946 -19.454845 15.383381
-65.005514 91.929018 -44.344593 171.625511 -13.831292 -5.205786 3.704586 5.610586 2.703315 2.107092 3.177845 0.649284 2.640518 3.968393 0.830186 2.107112 3.177850 0.649286 15.796803 30.060341 62.364411 20.639135 20.633822 104.392088 -4.646389 -5.224467 -5.397737 3.739066 3.205079 87.549967 14.740640 1.982472 2.321038 2.826902 -4.560134 -0.945149 -1.284961 -4.391782 5.138385 2.641712 19.714788 -69.944114 -27.056950 8.504581 -29.427324 39.023573 18.627171 -26.279560 0.944239 3.491516 -5.589160 -5.245768 18.136905 -3.629443 -4.024489 -5.673078 10.303855 -0.718670 -0.552916 -2.121818 -38.121646 14.901588 5.134219 -25.102612 24.552599 -9.967228 -17.432115 -6.858978 -6.151773 -3.562769 -20.404260 15.699105
-64.323640 91.962927 -44.101809 172.235846 -13.430928 -5.126118 3.688825 5.516219 2.561607 2.117849 3.099312 0.670415 2.653960 3.870085 0.856229 2.117873 3.099313 0.670417 15.835839 30.533671 62.241693 20.921610 21.309677 104.123104 -4.660367 -5.194018 -5.403551 3.985596 3.059989 87.437603 14.314318 1.960098 2.200347 2.721922 -4.511060 -0.810846 -0.969020 -4.200157 5.223392 2.942782 20.625639 -69.878238 -27.014560 7.649661 -30.416153 39.125099 18.606686 -26.883293 0.577894 3.319407 -5.346117 -5.567884 17.814886 -3.495110 -4.011336 -5.424008 9.954126 -0.667560 -0.764794 -1.936137 -37.507472 14.390129 5.949444 -25.180125 24.714437 -9.930094 -17.511549 -6.279435 -6.881145 -3.691248 -21.339247 15.987362
-63.675556 91.970099 -43.852992 172.837726 -12.977325 -4.866449 3.677593 5.392419 2.281051 2.118355 3.011570 0.680226 2.654459 3.760353 0.867974 2.118381 3.011569 0.680228 15.976146 30.995100 62.069322 21.284899 21.907018 103.630059 -4.715305 -5.111189 -5.436324 4.180160 2.899430 87.359490 13.915358 1.986077 2.051262 2.569796 -4.461620 -0.661387 -0.670160 -3.926519 5.330490 3.268925 21.486728 -69.884914 -26.897107 6.801618 -31.400228 39.225638 18.577518 -27.452291 0.375982 3.133444 -5.236643 -6.084258 17.425172 -3.430665 -4.090126 -5.208947 9.624196 -0.547199 -0.855077 -1.757906 -36.833978 13.667434 6.671241 -25.231375 24.873765 -9.906632 -17.608285 -5.683316 -7.631077 -3.764985 -22.246936 16.239528
-63.036584 91.957824 -43.606448 173.513153 -12.530673 -4.571124 3.614925 5.288019 1.992468 2.110458 2.920492 0.678330 2.644345 3.646536 0.864994 2.110484 2.920489 0.678333 16.228299 31.449547 61.859375 21.753180 22.431279 102.951873 -4.804416 -4.979807 -5.493942 4.297647 2.740579 87.319638 13.578112 2.063598 1.875605 2.360428 -4.407599 -0.498256 -0.395391 -3.578500 5.468643 3.644257 22.276192 -69.939983 -26.704947 6.006553 -32.415294 39.308837 18.569664 -27.992119 0.288500 3.005131 -5.116082 -6.765987 16.966481 -3.450602 -4.216912 -4.987252 9.338093 -0.412776 -0.897735 -1.600134 -36.175273 12.869974 7.350649 -25.228152 25.021952 -9.895020 -17.704092 -5.043717 -8.358343 -3.789344 -23.144925 16.406870
